<svg width="800" height="500" xmlns="http://www.w3.org/2000/svg">
  <rect width="100%" height="100%" fill="#ecf0f1"/>
  <rect x="50" y="100" width="700" height="300" rx="10" fill="#2c3e50" fill-opacity="0.1"/>
  
  <!-- Représentation des personnes -->
  <circle cx="200" cy="200" r="60" fill="#3498db"/>
  <circle cx="400" cy="200" r="60" fill="#2980b9"/>
  <circle cx="600" cy="200" r="60" fill="#3498db"/>
  
  <!-- Silhouettes -->
  <path d="M200 160 v-30 q-15 0 -15 15 v15 z" fill="#ecf0f1"/>
  <path d="M200 160 v-30 q15 0 15 15 v15 z" fill="#ecf0f1"/>
  <path d="M200 220 q-30 60 -30 80 h60 q0 -20 -30 -80" fill="#ecf0f1"/>
  <path d="M170 220 h60" stroke="#ecf0f1" stroke-width="5"/>
  
  <path d="M400 160 v-30 q-15 0 -15 15 v15 z" fill="#ecf0f1"/>
  <path d="M400 160 v-30 q15 0 15 15 v15 z" fill="#ecf0f1"/>
  <path d="M400 220 q-30 60 -30 80 h60 q0 -20 -30 -80" fill="#ecf0f1"/>
  <path d="M370 220 h60" stroke="#ecf0f1" stroke-width="5"/>
  
  <path d="M600 160 v-30 q-15 0 -15 15 v15 z" fill="#ecf0f1"/>
  <path d="M600 160 v-30 q15 0 15 15 v15 z" fill="#ecf0f1"/>
  <path d="M600 220 q-30 60 -30 80 h60 q0 -20 -30 -80" fill="#ecf0f1"/>
  <path d="M570 220 h60" stroke="#ecf0f1" stroke-width="5"/>
  
  <text x="400" y="350" font-family="Arial" font-size="24" fill="#2c3e50" text-anchor="middle">L'équipe Magistic D'hygiène</text>
  <text x="400" y="380" font-family="Arial" font-size="18" fill="#7f8c8d" text-anchor="middle">Des experts à votre service</text>
</svg>
