<svg width="600" height="400" xmlns="http://www.w3.org/2000/svg">
  <rect width="100%" height="100%" fill="#ecf0f1"/>
  <rect x="180" y="80" width="240" height="220" rx="5" fill="#e74c3c"/>
  <rect x="200" y="80" width="200" height="40" rx="5" fill="#c0392b"/>
  <path d="M250 120 h100 v180 h-100 z" fill="#c0392b"/>
  <path d="M260 130 h80 v40 h-80 z" fill="#e74c3c"/>
  <path d="M260 180 h80 v40 h-80 z" fill="#e74c3c"/>
  <path d="M260 230 h80 v40 h-80 z" fill="#e74c3c"/>
  
  <!-- Silhouette d'insecte avec X -->
  <path d="M180 340 l15 -15 l15 15 l5 -5 l-15 -15 l15 -15 l-5 -5 l-15 15 l-15 -15 l-5 5 l15 15 l-15 15 z" fill="#e74c3c"/>
  <path d="M380 340 l15 -15 l15 15 l5 -5 l-15 -15 l15 -15 l-5 -5 l-15 15 l-15 -15 l-5 5 l15 15 l-15 15 z" fill="#e74c3c"/>
  
  <text x="300" y="50" font-family="Arial" font-size="24" fill="#34495e" text-anchor="middle">Insecticide Professionnel</text>
</svg>
