<svg width="600" height="400" xmlns="http://www.w3.org/2000/svg">
  <rect width="100%" height="100%" fill="#ecf0f1"/>
  <!-- Fumigène -->
  <rect x="220" y="100" width="160" height="140" rx="10" fill="#95a5a6"/>
  <rect x="245" y="80" width="110" height="20" rx="5" fill="#7f8c8d"/>
  <rect x="270" y="60" width="60" height="20" rx="5" fill="#7f8c8d"/>
  
  <!-- Fumée -->
  <path d="M270 60 c-30 -40 30 -40 0 -80" stroke="#bdc3c7" stroke-width="10" fill="none" stroke-linecap="round" stroke-opacity="0.6"/>
  <path d="M330 60 c30 -40 -30 -40 0 -80" stroke="#bdc3c7" stroke-width="10" fill="none" stroke-linecap="round" stroke-opacity="0.6"/>
  <path d="M300 40 c0 -30 0 -30 0 -60" stroke="#bdc3c7" stroke-width="15" fill="none" stroke-linecap="round" stroke-opacity="0.7"/>
  
  <!-- Symboles insectes morts -->
  <path d="M180 280 l15 15 m0 -15 l-15 15" stroke="#e74c3c" stroke-width="3"/>
  <path d="M150 250 l12 12 m0 -12 l-12 12" stroke="#e74c3c" stroke-width="3"/>
  <path d="M200 240 l10 10 m0 -10 l-10 10" stroke="#e74c3c" stroke-width="3"/>
  <path d="M420 280 l15 15 m0 -15 l-15 15" stroke="#e74c3c" stroke-width="3"/>
  <path d="M450 250 l12 12 m0 -12 l-12 12" stroke="#e74c3c" stroke-width="3"/>
  <path d="M400 240 l10 10 m0 -10 l-10 10" stroke="#e74c3c" stroke-width="3"/>
  
  <text x="300" y="320" font-family="Arial" font-size="24" fill="#34495e" text-anchor="middle">Fumigène Total</text>
  <text x="300" y="350" font-family="Arial" font-size="18" fill="#34495e" text-anchor="middle">Traitement professionnel</text>
</svg>
